<svg width="18" height="18" viewBox="0 0 18 18" fill="none" xmlns="http://www.w3.org/2000/svg">
<g clip-path="url(#clip0_1_372)">
<path d="M10.2957 2.58313L11.6155 5.24466C11.7955 5.61515 12.2755 5.97052 12.6805 6.03857L15.0727 6.43931C16.6025 6.6964 16.9625 7.81545 15.8601 8.91937L14.0003 10.7945C13.6853 11.1121 13.5129 11.7245 13.6103 12.1631L14.1428 14.4844C14.5627 16.3217 13.5953 17.0325 11.983 16.0722L9.74077 14.7339C9.33585 14.4919 8.66842 14.4919 8.25592 14.7339L6.0137 16.0722C4.40887 17.0325 3.43399 16.3141 3.85394 14.4844L4.38638 12.1631C4.48387 11.7245 4.31139 11.1121 3.99642 10.7945L2.13663 8.91937C1.04175 7.81545 1.39421 6.6964 2.92404 6.43931L5.31628 6.03857C5.71373 5.97052 6.19368 5.61515 6.37366 5.24466L7.6935 2.58313C8.41342 1.13896 9.58327 1.13896 10.2957 2.58313Z" fill="#FF9900" stroke="#FF9900" stroke-width="1.5" stroke-linecap="round" stroke-linejoin="round"/>
</g>
<defs>
<clipPath id="clip0_1_372">
<rect width="18" height="18" fill="white"/>
</clipPath>
</defs>
</svg>
