<svg width="19" height="18" viewBox="0 0 19 18" fill="none" xmlns="http://www.w3.org/2000/svg">
<path d="M5.96265 2.25V3.9375M13.8376 2.25V3.9375M3.15015 14.0625V5.625C3.15015 5.17745 3.32794 4.74823 3.6444 4.43176C3.96087 4.11529 4.39009 3.9375 4.83765 3.9375H14.9626C15.4102 3.9375 15.8394 4.11529 16.1559 4.43176C16.4724 4.74823 16.6501 5.17745 16.6501 5.625V14.0625M3.15015 14.0625C3.15015 14.5101 3.32794 14.9393 3.6444 15.2557C3.96087 15.5722 4.39009 15.75 4.83765 15.75H14.9626C15.4102 15.75 15.8394 15.5722 16.1559 15.2557C16.4724 14.9393 16.6501 14.5101 16.6501 14.0625M3.15015 14.0625V8.4375C3.15015 7.98995 3.32794 7.56073 3.6444 7.24426C3.96087 6.92779 4.39009 6.75 4.83765 6.75H14.9626C15.4102 6.75 15.8394 6.92779 16.1559 7.24426C16.4724 7.56073 16.6501 7.98995 16.6501 8.4375V14.0625M9.90015 9.5625H9.90615V9.5685H9.90015V9.5625ZM9.90015 11.25H9.90615V11.256H9.90015V11.25ZM9.90015 12.9375H9.90615V12.9435H9.90015V12.9375ZM8.21265 11.25H8.21865V11.256H8.21265V11.25ZM8.21265 12.9375H8.21865V12.9435H8.21265V12.9375ZM6.52515 11.25H6.53115V11.256H6.52515V11.25ZM6.52515 12.9375H6.53115V12.9435H6.52515V12.9375ZM11.5876 9.5625H11.5936V9.5685H11.5876V9.5625ZM11.5876 11.25H11.5936V11.256H11.5876V11.25ZM11.5876 12.9375H11.5936V12.9435H11.5876V12.9375ZM13.2751 9.5625H13.2811V9.5685H13.2751V9.5625ZM13.2751 11.25H13.2811V11.256H13.2751V11.25Z" stroke="#2A2C3E" strokeLinecap="round" fillOpacity="round"/>
</svg>
