<svg width="1920" height="469" viewBox="0 0 1920 469" fill="none" xmlns="http://www.w3.org/2000/svg">
<rect width="1920" height="469" fill="url(#paint0_linear_771_1585)"/>
<g clip-path="url(#clip0_771_1585)">
<rect width="1155" height="323" transform="translate(354 145)" fill="url(#paint1_linear_771_1585)"/>
<g opacity="0.7">
<path d="M433.686 374.124H428.849H424.012C424.012 374.124 421.128 415.681 422.761 431.428C423.081 434.538 425.721 436.901 428.864 436.901C431.992 436.901 434.647 434.538 434.967 431.428C436.569 415.681 433.686 374.124 433.686 374.124Z" stroke="#FFDFD1" stroke-miterlimit="10"/>
<path d="M434.891 374.124H422.898C422.746 374.124 422.608 374.002 422.608 373.835V371.045C422.608 370.892 422.73 370.755 422.898 370.755H434.891C435.044 370.755 435.181 370.877 435.181 371.045V373.835C435.181 373.987 435.059 374.124 434.891 374.124Z" stroke="#FFDFD1" stroke-miterlimit="10"/>
<path d="M437.683 362.02H419.633C419.48 362.02 419.343 361.898 419.343 361.731V358.941C419.343 358.788 419.465 358.651 419.633 358.651H437.683C437.836 358.651 437.973 358.773 437.973 358.941V361.731C437.973 361.883 437.836 362.02 437.683 362.02Z" stroke="#FFDFD1" stroke-miterlimit="10"/>
<path d="M437.683 440.27H419.633C419.48 440.27 419.343 440.148 419.343 439.981V437.191C419.343 437.038 419.465 436.901 419.633 436.901H437.683C437.836 436.901 437.973 437.023 437.973 437.191V439.981C437.973 440.133 437.836 440.27 437.683 440.27Z" stroke="#FFDFD1" stroke-miterlimit="10"/>
<path d="M428.849 362.035V362.02H421.479L424.302 370.755H428.849V370.786H433.396L436.569 362.035H428.849Z" stroke="#FFDFD1" stroke-miterlimit="10"/>
<path d="M499.661 374.124H494.824H489.988C489.988 374.124 487.104 415.681 488.737 431.428C489.057 434.538 491.697 436.901 494.84 436.901C497.968 436.901 500.622 434.538 500.943 431.428C502.545 415.681 499.661 374.124 499.661 374.124Z" stroke="#FFDFD1" stroke-miterlimit="10"/>
<path d="M500.867 374.124H488.874C488.721 374.124 488.584 374.002 488.584 373.835V371.045C488.584 370.892 488.706 370.755 488.874 370.755H500.867C501.019 370.755 501.157 370.877 501.157 371.045V373.835C501.157 373.987 501.034 374.124 500.867 374.124Z" stroke="#FFDFD1" stroke-miterlimit="10"/>
<path d="M503.659 362.02H485.609C485.456 362.02 485.319 361.898 485.319 361.731V358.941C485.319 358.788 485.441 358.651 485.609 358.651H503.659C503.811 358.651 503.949 358.773 503.949 358.941V361.731C503.949 361.883 503.811 362.02 503.659 362.02Z" stroke="#FFDFD1" stroke-miterlimit="10"/>
<path d="M503.659 440.27H485.609C485.456 440.27 485.319 440.148 485.319 439.981V437.191C485.319 437.038 485.441 436.901 485.609 436.901H503.659C503.811 436.901 503.949 437.023 503.949 437.191V439.981C503.949 440.133 503.811 440.27 503.659 440.27Z" stroke="#FFDFD1" stroke-miterlimit="10"/>
<path d="M494.824 362.035V362.02H487.455L490.278 370.755H494.824V370.786H499.371L502.545 362.035H494.824Z" stroke="#FFDFD1" stroke-miterlimit="10"/>
<path d="M466.673 374.124H461.837H457C457 374.124 454.116 415.681 455.749 431.428C456.069 434.538 458.709 436.901 461.852 436.901C464.98 436.901 467.635 434.538 467.955 431.428C469.557 415.681 466.673 374.124 466.673 374.124Z" stroke="#FFDFD1" stroke-miterlimit="10"/>
<path d="M467.879 374.124H455.886C455.733 374.124 455.596 374.002 455.596 373.835V371.045C455.596 370.892 455.718 370.755 455.886 370.755H467.879C468.031 370.755 468.169 370.877 468.169 371.045V373.835C468.169 373.987 468.047 374.124 467.879 374.124Z" stroke="#FFDFD1" stroke-miterlimit="10"/>
<path d="M470.671 362.02H452.621C452.468 362.02 452.331 361.898 452.331 361.731V358.941C452.331 358.788 452.453 358.651 452.621 358.651H470.671C470.824 358.651 470.961 358.773 470.961 358.941V361.731C470.961 361.883 470.824 362.02 470.671 362.02Z" stroke="#FFDFD1" stroke-miterlimit="10"/>
<path d="M470.671 440.27H452.621C452.468 440.27 452.331 440.148 452.331 439.981V437.191C452.331 437.038 452.453 436.901 452.621 436.901H470.671C470.824 436.901 470.961 437.023 470.961 437.191V439.981C470.961 440.133 470.824 440.27 470.671 440.27Z" stroke="#FFDFD1" stroke-miterlimit="10"/>
<path d="M461.837 362.035V362.02H454.467L457.29 370.755H461.837V370.786H466.384L469.557 362.035H461.837Z" stroke="#FFDFD1" stroke-miterlimit="10"/>
<path d="M399.828 374.124H394.991H390.155C390.155 374.124 387.271 415.681 388.903 431.428C389.224 434.538 391.863 436.901 395.007 436.901C398.135 436.901 400.789 434.538 401.11 431.428C402.712 415.681 399.828 374.124 399.828 374.124Z" stroke="#FFDFD1" stroke-miterlimit="10"/>
<path d="M401.034 374.124H389.041C388.888 374.124 388.751 374.002 388.751 373.835V371.045C388.751 370.892 388.873 370.755 389.041 370.755H401.034C401.186 370.755 401.323 370.877 401.323 371.045V373.835C401.323 373.987 401.201 374.124 401.034 374.124Z" stroke="#FFDFD1" stroke-miterlimit="10"/>
<path d="M403.826 362.02H385.776C385.623 362.02 385.486 361.898 385.486 361.731V358.941C385.486 358.788 385.608 358.651 385.776 358.651H403.826C403.978 358.651 404.116 358.773 404.116 358.941V361.731C404.116 361.883 403.978 362.02 403.826 362.02Z" stroke="#FFDFD1" stroke-miterlimit="10"/>
<path d="M403.826 440.27H385.776C385.623 440.27 385.486 440.148 385.486 439.981V437.191C385.486 437.038 385.608 436.901 385.776 436.901H403.826C403.978 436.901 404.116 437.023 404.116 437.191V439.981C404.116 440.133 403.978 440.27 403.826 440.27Z" stroke="#FFDFD1" stroke-miterlimit="10"/>
<path d="M394.991 362.035V362.02H387.622L390.444 370.755H394.976V370.786H399.538L402.712 362.035H394.991Z" stroke="#FFDFD1" stroke-miterlimit="10"/>
<path d="M533.519 374.124H528.682H523.845C523.845 374.124 520.961 415.681 522.594 431.428C522.914 434.538 525.554 436.901 528.697 436.901C531.825 436.901 534.48 434.538 534.8 431.428C536.402 415.681 533.519 374.124 533.519 374.124Z" stroke="#FFDFD1" stroke-miterlimit="10"/>
<path d="M534.724 374.124H522.731C522.579 374.124 522.441 374.002 522.441 373.835V371.045C522.441 370.892 522.563 370.755 522.731 370.755H534.724C534.877 370.755 535.014 370.877 535.014 371.045V373.835C535.014 373.987 534.892 374.124 534.724 374.124Z" stroke="#FFDFD1" stroke-miterlimit="10"/>
<path d="M537.516 362.02H519.466C519.314 362.02 519.176 361.898 519.176 361.731V358.941C519.176 358.788 519.298 358.651 519.466 358.651H537.516C537.669 358.651 537.806 358.773 537.806 358.941V361.731C537.806 361.883 537.669 362.02 537.516 362.02Z" stroke="#FFDFD1" stroke-miterlimit="10"/>
<path d="M537.516 440.27H519.466C519.314 440.27 519.176 440.148 519.176 439.981V437.191C519.176 437.038 519.298 436.901 519.466 436.901H537.516C537.669 436.901 537.806 437.023 537.806 437.191V439.981C537.806 440.133 537.669 440.27 537.516 440.27Z" stroke="#FFDFD1" stroke-miterlimit="10"/>
<path d="M528.682 362.035V362.02H521.312L524.135 370.755H528.682V370.786H533.229L536.402 362.035H528.682Z" stroke="#FFDFD1" stroke-miterlimit="10"/>
<path d="M539.5 455.82H383.807V460.423H539.5V455.82Z" stroke="#FFDFD1" stroke-miterlimit="10"/>
<path d="M542.765 462.634H380.512V467.238H542.765V462.634Z" stroke="#FFDFD1" stroke-miterlimit="10"/>
<path d="M541.422 349.809H381.87V356.425H541.422V349.809Z" stroke="#FFDFD1" stroke-miterlimit="10"/>
<path d="M462.111 338.406H461.165H375.614L382.342 347.599H461.165H462.111H540.949L547.678 338.406H462.111Z" stroke="#FFDFD1" stroke-miterlimit="10"/>
<path d="M536.601 442.481H386.691V453.594H536.601V442.481Z" stroke="#FFDFD1" stroke-miterlimit="10"/>
<path d="M461.638 300.753L368 329.458V336.181H461.638H555.292V329.458L461.638 300.753Z" stroke="#FFDFD1" stroke-miterlimit="10"/>
<path d="M516.399 308.649H494.748L516.399 315.281V308.649Z" stroke="#FFDFD1" stroke-miterlimit="10"/>
<path d="M406.893 308.649V315.281L428.544 308.649H406.893Z" stroke="#FFDFD1" stroke-miterlimit="10"/>
<path d="M1332.67 464.387H1299.73V467.238H1332.67V464.387Z" stroke="#FFDFD1" stroke-miterlimit="10"/>
<path d="M1319.64 404.263V410.284H1312.77V404.263H1312.74L1311.96 402.738H1316.2H1320.45L1319.64 404.263Z" stroke="#FFDFD1" stroke-miterlimit="10"/>
<path d="M1319.07 399.872C1319.07 398.287 1317.79 397.006 1316.2 397.006C1314.62 397.006 1313.34 398.287 1313.34 399.872C1313.34 401.458 1314.62 402.738 1316.2 402.738C1317.79 402.738 1319.07 401.458 1319.07 399.872Z" stroke="#FFDFD1" stroke-miterlimit="10"/>
<path d="M1404.04 404.263V410.284H1397.19V404.263H1397.16L1396.38 402.738H1400.61H1404.85L1404.04 404.263Z" stroke="#FFDFD1" stroke-miterlimit="10"/>
<path d="M1403.48 399.872C1403.48 398.287 1402.2 397.006 1400.61 397.006C1399.02 397.006 1397.74 398.287 1397.74 399.872C1397.74 401.458 1399.02 402.738 1400.61 402.738C1402.2 402.738 1403.48 401.458 1403.48 399.872Z" stroke="#FFDFD1" stroke-miterlimit="10"/>
<path d="M1488.45 404.263V410.284H1481.6V404.263H1481.57L1480.79 402.738H1485.03H1489.26L1488.45 404.263Z" stroke="#FFDFD1" stroke-miterlimit="10"/>
<path d="M1487.89 399.872C1487.89 398.287 1486.6 397.006 1485.02 397.006C1483.43 397.006 1482.15 398.287 1482.15 399.872C1482.15 401.458 1483.43 402.738 1485.02 402.738C1486.6 402.738 1487.89 401.458 1487.89 399.872Z" stroke="#FFDFD1" stroke-miterlimit="10"/>
<path d="M1417.09 464.387H1384.15V467.238H1417.09V464.387Z" stroke="#FFDFD1" stroke-miterlimit="10"/>
<path d="M1501.5 464.387H1468.55V467.238H1501.5V464.387Z" stroke="#FFDFD1" stroke-miterlimit="10"/>
<path d="M1442.81 420.986H1358.41H1274V428.288C1291.35 428.288 1305.4 440.773 1305.4 456.185C1305.4 459.036 1304.91 461.795 1304.03 464.387H1328.39C1327.49 461.795 1327.02 459.036 1327.02 456.185C1327.02 440.773 1341.09 428.288 1358.42 428.288C1375.77 428.288 1389.82 440.773 1389.82 456.185C1389.82 459.036 1389.34 461.795 1388.45 464.387H1412.8C1411.9 461.795 1411.43 459.036 1411.43 456.185C1411.43 440.773 1425.5 428.288 1442.83 428.288C1460.16 428.288 1474.23 440.773 1474.23 456.185C1474.23 459.036 1473.74 461.795 1472.86 464.387H1497.22C1496.32 461.795 1495.85 459.036 1495.85 456.185C1495.85 440.773 1509.92 428.288 1527.25 428.288V420.986H1442.81Z" stroke="#FFDFD1" stroke-miterlimit="10"/>
<path d="M1442.81 410.498H1358.41H1274V415.452V420.757H1278.1V415.452H1284.97V420.757H1291.38V415.452H1298.52V420.757H1302.62V415.452H1310.68V420.757H1321.73V415.452H1329.78V420.757H1333.89V415.452H1341.03V420.757H1347.44V415.452H1354.29V420.757H1358.41H1362.53V415.452H1369.38V420.757H1375.8V415.452H1382.93V420.757H1387.05V415.452H1395.1V420.757H1406.13V415.452H1414.19V420.757H1418.31V415.452H1425.44V420.757H1431.84V415.452H1438.71V420.757H1442.81H1446.93V415.452H1453.78V420.757H1460.21V415.452H1467.33V420.757H1471.45V415.452H1479.51V420.757H1490.54V415.452H1498.6V420.757H1502.72V415.452H1509.84V420.757H1516.27V415.452H1523.12V420.757H1527.24V415.452V410.498H1442.81Z" stroke="#FFDFD1" stroke-miterlimit="10"/>
<path d="M998.608 281.941V265.492H994.183V254.013H998.608C998.867 254.013 999.096 253.784 999.096 253.51C999.096 253.236 998.882 253.007 998.608 253.007H994.183V247.306C994.183 247.031 993.969 246.802 993.695 246.802C993.435 246.802 993.207 247.031 993.207 247.306V253.007H988.782C988.522 253.007 988.293 253.236 988.293 253.51C988.293 253.784 988.507 254.013 988.782 254.013H993.207V265.492H988.782V281.941C990.384 281.682 992.016 281.545 993.695 281.545C995.373 281.56 997.006 281.682 998.608 281.941Z" stroke="#FFDFD1" stroke-miterlimit="10"/>
<path d="M998.608 283.953C997.006 283.694 995.358 283.557 993.695 283.557C992.032 283.557 990.384 283.694 988.782 283.953C973.463 286.408 961.729 300.173 961.729 316.79H1025.64C1025.66 300.173 1013.93 286.408 998.608 283.953Z" stroke="#FFDFD1" stroke-miterlimit="10"/>
<path d="M1027.93 318.787H959.059V323.802H1027.93V318.787Z" stroke="#FFDFD1" stroke-miterlimit="10"/>
<path d="M950.347 356.41H920.67" stroke="#FFDFD1" stroke-miterlimit="10"/>
<path d="M920.67 354.246H950.347" stroke="#FFDFD1" stroke-miterlimit="10"/>
<path d="M921.83 358.407V382.89H949.355V358.407H921.83ZM940.002 375.923H931V368.819C931 366.334 933.014 364.322 935.501 364.322C937.988 364.322 940.002 366.334 940.002 368.819V375.923Z" stroke="#FFDFD1" stroke-miterlimit="10"/>
<path d="M939.926 336.653C939.895 336.15 939.712 334.9 938.537 333.574C937.881 332.827 936.996 332.415 936.096 332.309C936.096 332.293 936.111 332.278 936.111 332.263V327.781H937.637C937.912 327.781 938.14 327.552 938.14 327.278C938.14 327.004 937.912 326.775 937.637 326.775H936.111V325.235C936.111 324.961 935.882 324.732 935.608 324.732C935.333 324.732 935.104 324.961 935.104 325.235V326.775H933.441C933.166 326.775 932.937 327.004 932.937 327.278C932.937 327.552 933.166 327.781 933.441 327.781H935.104V332.263C935.104 332.278 935.119 332.293 935.119 332.309C934.219 332.415 933.334 332.827 932.678 333.574C931.503 334.9 931.32 336.15 931.29 336.653C932.648 336.181 934.097 335.922 935.623 335.922C937.149 335.922 938.568 336.181 939.926 336.653Z" stroke="#FFDFD1" stroke-miterlimit="10"/>
<path d="M939.926 338.666C938.568 338.193 937.118 337.934 935.592 337.934C934.067 337.934 932.632 338.193 931.259 338.666C925.781 340.556 921.83 345.907 921.83 352.249H949.355C949.355 345.907 945.403 340.556 939.926 338.666Z" stroke="#FFDFD1" stroke-miterlimit="10"/>
<path d="M1036.46 356.41H1066.12" stroke="#FFDFD1" stroke-miterlimit="10"/>
<path d="M1037.62 358.407V382.89H1065.15V358.407H1037.62ZM1055.79 375.923H1046.79V368.819C1046.79 366.334 1048.81 364.322 1051.29 364.322C1053.78 364.322 1055.79 366.334 1055.79 368.819V375.923Z" stroke="#FFDFD1" stroke-miterlimit="10"/>
<path d="M1055.72 336.653C1055.69 336.15 1055.5 334.9 1054.33 333.574C1053.67 332.827 1052.79 332.415 1051.89 332.309C1051.89 332.293 1051.9 332.278 1051.9 332.263V327.781H1053.43C1053.7 327.781 1053.93 327.552 1053.93 327.278C1053.93 327.004 1053.7 326.775 1053.43 326.775H1051.9V325.235C1051.9 324.961 1051.68 324.732 1051.4 324.732C1051.13 324.732 1050.9 324.961 1050.9 325.235V326.775H1049.23C1048.96 326.775 1048.73 327.004 1048.73 327.278C1048.73 327.552 1048.96 327.781 1049.23 327.781H1050.9V332.263C1050.9 332.278 1050.91 332.293 1050.91 332.309C1050.01 332.415 1049.13 332.827 1048.47 333.574C1047.3 334.9 1047.11 336.15 1047.08 336.653C1048.44 336.181 1049.89 335.922 1051.42 335.922C1052.9 335.922 1054.35 336.181 1055.72 336.653Z" stroke="#FFDFD1" stroke-miterlimit="10"/>
<path d="M1055.72 338.666C1054.36 338.193 1052.91 337.934 1051.39 337.934C1049.87 337.934 1048.43 338.193 1047.05 338.666C1041.57 340.556 1037.62 345.907 1037.62 352.249H1065.15C1065.15 345.907 1061.2 340.556 1055.72 338.666Z" stroke="#FFDFD1" stroke-miterlimit="10"/>
<path d="M1017.39 382.6H1025.66V325.754H961.744V382.6H970.014M1019.07 354.444H968.351M1007.76 337.355C1007.76 334.733 1009.81 332.598 1012.34 332.598C1014.87 332.598 1016.92 334.733 1016.92 337.355V351.563H1007.76V337.355ZM995.465 337.355C995.465 334.733 997.509 332.598 1000.04 332.598C1002.57 332.598 1004.62 334.733 1004.62 337.355V351.563H995.465V337.355ZM982.984 337.355C982.984 334.733 985.028 332.598 987.561 332.598C990.094 332.598 992.138 334.733 992.138 337.355V351.563H982.984V337.355ZM970.487 337.355C970.487 334.733 972.532 332.598 975.065 332.598C977.598 332.598 979.642 334.733 979.642 337.355V351.563H970.487V337.355Z" stroke="#FFDFD1" stroke-miterlimit="10"/>
<path d="M965.254 385.177H908.906V398.134H970.808V391.701" stroke="#FFDFD1" stroke-miterlimit="10"/>
<path d="M1016.6 391.701V398.134H1078.5V385.177H1022.15" stroke="#FFDFD1" stroke-miterlimit="10"/>
<path d="M1017.39 384.613L993.695 370.024L970.014 384.613L961.744 389.704H993.695H1025.66L1017.39 384.613Z" stroke="#FFDFD1" stroke-miterlimit="10"/>
<path d="M970.808 401.153H915.528V460.5H912.354V463.792H1074.58V460.5H1071.88V401.153H1016.6M1014.58 460.5V391.656H972.807V460.5M967.909 426.2H920.853M1067.31 426.2H1020.26M951.155 409.72C951.155 406.412 953.841 403.729 957.152 403.729C960.463 403.729 963.148 406.412 963.148 409.72V422.541H951.155V409.72ZM928.604 409.72C928.604 406.412 931.29 403.729 934.601 403.729C937.912 403.729 940.597 406.412 940.597 409.72V422.541H928.604V409.72ZM940.597 448.136H928.604V440.575C928.604 437.267 931.29 434.584 934.601 434.584C937.912 434.584 940.597 437.267 940.597 440.575V448.136ZM963.148 460.5H951.155V441.764C951.155 438.456 953.841 435.773 957.152 435.773C960.463 435.773 963.148 438.456 963.148 441.764V460.5ZM1001.11 410.025C1001.11 407.967 1002.77 406.305 1004.83 406.305C1006.89 406.305 1008.56 407.967 1008.56 410.025V417.922H1001.11V410.025ZM978.849 410.025C978.849 407.967 980.512 406.305 982.572 406.305C984.632 406.305 986.295 407.967 986.295 410.025V417.922H978.849V410.025ZM984.113 460.5V435.804C984.113 430.026 988.797 425.346 994.58 425.346C1000.36 425.346 1005.05 430.026 1005.05 435.804V460.5H984.113ZM1047.56 409.72C1047.56 406.412 1050.24 403.729 1053.55 403.729C1056.86 403.729 1059.55 406.412 1059.55 409.72V422.541H1047.56V409.72ZM1025.02 409.72C1025.02 406.412 1027.7 403.729 1031.02 403.729C1034.33 403.729 1037.01 406.412 1037.01 409.72V422.541H1025.02V409.72ZM1037.01 460.5H1025.02V441.764C1025.02 438.456 1027.7 435.773 1031.02 435.773C1034.33 435.773 1037.01 438.456 1037.01 441.764V460.5ZM1059.56 448.136H1047.57V440.575C1047.57 437.267 1050.26 434.584 1053.57 434.584C1056.88 434.584 1059.56 437.267 1059.56 440.575V448.136Z" stroke="#FFDFD1" stroke-miterlimit="10"/>
<path d="M1081.92 463.792H905V467.238H1081.92V463.792Z" stroke="#FFDFD1" stroke-miterlimit="10"/>
<path d="M1036.46 354.185H1066.12" stroke="#FFDFD1" stroke-miterlimit="10"/>
<path d="M688.57 425.925C695.07 425.925 701.509 426.017 707.841 426.215L707.78 418.089H692.049L685.762 390.863C637.883 391.046 596.946 399.064 572.93 411.351V439.386C578.209 437.633 584.388 436.002 591.437 434.492C617.391 428.959 651.89 425.925 688.57 425.925Z" stroke="#FFDFD1" stroke-miterlimit="10"/>
<path d="M655.262 314.488C610.373 321.714 576.286 344.703 572.945 347.081V373.012C617.422 346.471 657.901 344.794 660.419 344.626L655.262 314.488Z" stroke="#FFDFD1" stroke-miterlimit="10"/>
<path d="M589.332 355.77L586.585 357.081V349.733L589.332 348.453V355.77Z" stroke="#FFDFD1" stroke-miterlimit="10"/>
<path d="M612.631 346.319L607.855 347.492V340.068L612.631 338.132V346.319Z" stroke="#FFDFD1" stroke-miterlimit="10"/>
<path d="M631.108 338.01L626.561 338.925V333.132L631.108 331.729V338.01Z" stroke="#FFDFD1" stroke-miterlimit="10"/>
<path d="M613.104 463.777H619.863V445.453C619.863 441.444 622.869 438.197 626.561 438.197C630.254 438.197 633.26 441.444 633.26 445.453V463.777H640.141V443.959C640.141 439.95 643.147 436.703 646.839 436.703C650.547 436.703 653.537 439.95 653.537 443.959V463.777H661.578V443.959C661.578 439.95 664.584 436.703 668.277 436.703C671.984 436.703 674.975 439.95 674.975 443.959V463.777H683.748V443.959C683.748 439.95 686.754 436.703 690.447 436.703C694.154 436.703 697.145 439.95 697.145 443.959V463.777H708.085L707.856 430.636C701.509 430.453 695.07 430.346 688.555 430.346C651.92 430.346 617.483 433.38 591.575 438.898C584.48 440.407 578.239 442.069 572.93 443.853V455.941V456.795V458.884V459.737V463.777" stroke="#FFDFD1" stroke-miterlimit="10"/>
<path d="M590.919 463.777H592.445H595.771" stroke="#FFDFD1" stroke-miterlimit="10"/>
<path d="M578.804 463.777H581.932H584.037H584.693" stroke="#FFDFD1" stroke-miterlimit="10"/>
<path d="M873.329 463.777H570V467.238H873.329V463.777Z" stroke="#FFDFD1" stroke-miterlimit="10"/>
<path d="M865.929 463.777H869.24H872.139V383.347L869.24 381.731C869.24 381.731 864.601 378.85 853.539 375.42V379.872L847.268 378.408L847.482 373.682C842.767 372.417 837.183 371.152 830.668 369.963V374.292L824.946 373.179V368.987C818.324 367.92 810.847 366.975 802.471 366.212V370.694H796.352L796.49 365.709C789.547 365.176 782.01 364.795 773.877 364.566V369.139H767.759L767.896 364.444C760.572 364.337 752.775 364.353 744.49 364.566V369.155H738.372L738.494 364.749C732.452 364.947 726.166 365.237 719.62 365.618V378.347L727.035 378.774L727.249 384.292C727.249 384.292 814.723 380.756 865.654 398.622" stroke="#FFDFD1" stroke-miterlimit="10"/>
<path d="M727.539 386.518V386.625L735.961 414.065H752.226V424.141C756.834 424.172 760.115 424.446 765.104 424.446C801.372 424.446 834.146 425.651 869.24 433.105V436.55H869.072C843.179 431.032 809.749 427.693 773.114 427.693C766.599 427.693 758.68 427.51 752.348 427.709L753.584 463.777H764.524V443.959C764.524 439.95 767.53 436.703 771.222 436.703C774.93 436.703 777.921 439.95 777.921 443.959V463.777H786.694V443.959C786.694 439.95 789.7 436.703 793.392 436.703C797.1 436.703 800.091 439.95 800.091 443.959V463.777H808.131V443.959C808.131 439.95 811.137 436.703 814.83 436.703C818.537 436.703 821.528 439.95 821.528 443.959V463.777H828.409V443.959C828.409 439.95 831.415 436.703 835.108 436.703C838.815 436.703 841.806 439.95 841.806 443.959V463.777H848.123V445.636V445.423C848.123 442.13 851.037 439.584 854.302 440.026C857.003 440.392 859.032 442.694 859.032 445.423V463.777" stroke="#FFDFD1" stroke-miterlimit="10"/>
<path d="M755.537 370.664H751.25V375.222H755.537V370.664Z" stroke="#FFDFD1" stroke-miterlimit="10"/>
<path d="M812.922 378.957L808.513 378.317V374.277L812.922 374.902V378.957Z" stroke="#FFDFD1" stroke-miterlimit="10"/>
<path d="M724.441 386.915L724.197 380.725H715.149V386.655H709.199V383.042H699.434V386.655H692.293L686.739 382.417M692.232 403.836C692.232 400.558 694.688 397.906 697.709 397.906C700.73 397.906 703.187 400.558 703.187 403.836V414.675H693.513M731.674 438.868C731.674 435.59 734.13 432.938 737.151 432.938C740.172 432.938 742.629 435.59 742.629 438.868V452.557H731.674V438.868ZM725.113 438.868V452.557H714.158V438.868C714.158 435.59 716.614 432.938 719.635 432.938C722.656 432.938 725.113 435.59 725.113 438.868ZM713.318 403.836C713.318 400.558 715.775 397.906 718.796 397.906C721.817 397.906 724.274 400.558 724.274 403.836V414.675H713.318V403.836Z" stroke="#FFDFD1" stroke-miterlimit="10"/>
<path d="M864.144 385.268V389.826L860.817 388.104V383.347L864.144 385.268Z" stroke="#FFDFD1" stroke-miterlimit="10"/>
<path d="M773.069 420.147H759.458V400.452C759.458 396.701 762.51 393.653 766.264 393.653C770.017 393.653 773.069 396.701 773.069 400.452V420.147Z" stroke="#FFDFD1" stroke-miterlimit="10"/>
<path d="M794.643 420.513L781.033 420.148V401.305C781.033 397.449 784.237 394.369 788.098 394.506C791.76 394.644 794.643 397.647 794.643 401.305V420.513Z" stroke="#FFDFD1" stroke-miterlimit="10"/>
<path d="M814.753 421.306L801.143 420.513V402.525C801.143 398.485 804.637 395.345 808.666 395.756C812.129 396.122 814.753 399.034 814.753 402.525V421.306Z" stroke="#FFDFD1" stroke-miterlimit="10"/>
<path d="M835.718 423.075L822.108 421.687V405.406C822.108 401.168 825.953 397.952 830.134 398.714C833.368 399.308 835.718 402.113 835.718 405.406V423.075Z" stroke="#FFDFD1" stroke-miterlimit="10"/>
<path d="M855.996 425.773L842.386 423.715V410.01C842.386 405.482 846.719 402.22 851.067 403.47C853.982 404.308 855.996 406.976 855.996 410.01V425.773Z" stroke="#FFDFD1" stroke-miterlimit="10"/>
<path d="M665.759 422.297H679.369V402.601C679.369 398.851 676.318 395.802 672.564 395.802C668.811 395.802 665.759 398.851 665.759 402.601V422.297Z" stroke="#FFDFD1" stroke-miterlimit="10"/>
<path d="M644.184 422.663L657.794 422.297V403.455C657.794 399.598 654.59 396.519 650.73 396.656C647.068 396.793 644.184 399.796 644.184 403.455V422.663Z" stroke="#FFDFD1" stroke-miterlimit="10"/>
<path d="M624.074 424.614L637.684 423.821V405.833C637.684 401.793 634.19 398.653 630.162 399.064C626.699 399.43 624.074 402.342 624.074 405.833V424.614Z" stroke="#FFDFD1" stroke-miterlimit="10"/>
<path d="M603.11 427.922L616.72 426.535V410.254C616.72 406.016 612.875 402.799 608.694 403.561C605.46 404.156 603.11 406.961 603.11 410.254V427.922Z" stroke="#FFDFD1" stroke-miterlimit="10"/>
<path d="M582.832 431.855L596.442 429.797V416.092C596.442 411.565 592.109 408.302 587.76 409.553C584.846 410.391 582.832 413.059 582.832 416.092V431.855Z" stroke="#FFDFD1" stroke-miterlimit="10"/>
<path d="M648.93 381.853L661.578 380.68V366.136C661.578 362.645 658.74 359.81 655.246 359.81C651.752 359.81 648.914 362.645 648.914 366.136V381.853H648.93Z" stroke="#FFDFD1" stroke-miterlimit="10"/>
<path d="M629.781 384.674L641.529 383.103V368.27C641.529 365.237 638.768 362.798 635.426 362.92C632.268 363.026 629.766 365.389 629.766 368.27V384.674H629.781Z" stroke="#FFDFD1" stroke-miterlimit="10"/>
<path d="M611.013 388.119L622.838 385.878V371.7C622.838 368.514 619.802 366.045 616.308 366.38C613.302 366.67 611.013 368.972 611.013 371.7V388.119Z" stroke="#FFDFD1" stroke-miterlimit="10"/>
<path d="M593.574 393.454L605.399 390.07V377.676C605.399 374.338 602.057 371.807 598.426 372.402C595.618 372.859 593.574 375.085 593.574 377.676V393.454Z" stroke="#FFDFD1" stroke-miterlimit="10"/>
<path d="M576.622 399.019L587.959 395.07V383.591C587.959 380.603 584.754 378.332 581.276 378.881C578.575 379.292 576.622 381.274 576.622 383.591V399.019Z" stroke="#FFDFD1" stroke-miterlimit="10"/>
<path d="M684.404 382.387L669.986 382.326L662.83 347.492C660.846 347.691 610.22 351.944 572.945 376.228V408.104C578.224 405.437 584.388 402.342 591.407 400.04C616.781 391.747 649.616 387.159 685.381 386.945L684.404 382.387Z" stroke="#FFDFD1" stroke-miterlimit="10"/>
<path d="M613.409 463.777V447.557C613.409 444.142 610.373 441.52 606.985 442.039C604.254 442.45 602.225 444.798 602.225 447.557V463.777H596.442V449.417C596.442 446.429 593.696 444.203 590.766 444.813C588.584 445.271 587.013 447.191 587.013 449.417V463.777" stroke="#FFDFD1" stroke-miterlimit="10"/>
<path d="M1163.68 405.116C1163.42 401.016 1159.72 397.906 1155.45 398.15C1151.16 398.409 1147.92 401.93 1148.17 406.031L1151.76 461.673H1167.32L1163.68 405.116Z" stroke="#FFDFD1" stroke-miterlimit="10"/>
<path d="M1188.64 401.122C1188.38 396.839 1184.69 393.592 1180.41 393.851C1176.13 394.11 1172.88 397.799 1173.14 402.067L1176.81 461.658H1192.38L1188.64 401.122Z" stroke="#FFDFD1" stroke-miterlimit="10"/>
<path d="M1212.62 399.644C1212.36 395.36 1208.67 392.113 1204.4 392.372C1200.11 392.631 1196.86 396.32 1197.12 400.589L1200.89 461.658H1216.45L1212.62 399.644Z" stroke="#FFDFD1" stroke-miterlimit="10"/>
<path d="M1236.61 400.818C1236.35 396.717 1232.66 393.607 1228.39 393.851C1224.1 394.11 1220.85 397.631 1221.11 401.732L1224.97 461.673H1240.53L1236.61 400.818Z" stroke="#FFDFD1" stroke-miterlimit="10"/>
<path d="M1248.86 461.673H1140.97V467.222H1248.86V461.673Z" stroke="#FFDFD1" stroke-miterlimit="10"/>
<path d="M1240.65 388.195L1245.43 461.673" stroke="#FFDFD1" stroke-miterlimit="10"/>
<path d="M1238.41 353.712L1240.44 384.887" stroke="#FFDFD1" stroke-miterlimit="10"/>
<path d="M1236.23 319.991L1238.2 350.419" stroke="#FFDFD1" stroke-miterlimit="10"/>
<path d="M1234 285.813L1236 316.683" stroke="#FFDFD1" stroke-miterlimit="10"/>
<path d="M1231.76 251.376L1233.79 282.505" stroke="#FFDFD1" stroke-miterlimit="10"/>
<path d="M1229.56 217.579L1231.54 248.068" stroke="#FFDFD1" stroke-miterlimit="10"/>
<path d="M1227.35 183.462L1229.35 214.271" stroke="#FFDFD1" stroke-miterlimit="10"/>
<path d="M1129.8 221.314L1127.73 189.636" stroke="#FFDFD1" stroke-miterlimit="10"/>
<path d="M1132.14 255.004L1130.14 224.469" stroke="#FFDFD1" stroke-miterlimit="10"/>
<path d="M1134.27 289.426L1132.12 258.327" stroke="#FFDFD1" stroke-miterlimit="10"/>
<path d="M1136.53 323.879L1134.47 292.566" stroke="#FFDFD1" stroke-miterlimit="10"/>
<path d="M1138.75 357.828L1136.73 327.019" stroke="#FFDFD1" stroke-miterlimit="10"/>
<path d="M1140.99 392.098L1138.96 360.938" stroke="#FFDFD1" stroke-miterlimit="10"/>
<path d="M1145.55 461.673L1141.22 395.589" stroke="#FFDFD1" stroke-miterlimit="10"/>
<path d="M1208.93 149.954L1210.64 178.096" stroke="#FFDFD1" stroke-miterlimit="10"/>
<path d="M1141.58 182.669L1139.77 154.817" stroke="#FFDFD1" stroke-miterlimit="10"/>
<path d="M1195.98 382.661C1172.56 383.713 1151.47 387.905 1136.17 393.835V397.052C1151.47 391.107 1172.56 386.93 1195.98 385.878C1214.7 385.039 1232.34 386.396 1246.63 389.262V386C1232.29 383.119 1214.79 381.823 1195.98 382.661Z" stroke="#FFDFD1" stroke-miterlimit="10"/>
<path d="M1194.09 348.239C1170.66 349.291 1149.58 353.483 1134.27 359.413V362.63C1149.58 356.685 1170.66 352.508 1194.09 351.456C1212.81 350.617 1230.45 351.974 1244.74 354.84V351.578C1230.42 348.697 1212.91 347.385 1194.09 348.239Z" stroke="#FFDFD1" stroke-miterlimit="10"/>
<path d="M1191.48 314.457C1168.06 315.509 1146.97 319.702 1131.67 325.632V328.848C1146.97 322.903 1168.06 318.726 1191.48 317.674C1210.2 316.836 1227.84 318.192 1242.13 321.058V317.796C1227.81 314.9 1210.3 313.604 1191.48 314.457Z" stroke="#FFDFD1" stroke-miterlimit="10"/>
<path d="M1151.64 363.56C1151.61 363.575 1151.58 363.575 1151.55 363.59C1149.44 364.139 1148.01 366.121 1148.16 368.286L1149.35 385.405C1152.25 384.643 1155.25 383.927 1158.38 383.271L1157.3 367.63C1157.1 364.81 1154.38 362.828 1151.64 363.56Z" stroke="#FFDFD1" stroke-miterlimit="10"/>
<path d="M1163.54 382.28C1166.48 381.747 1169.52 381.259 1172.62 380.832L1171.47 364.52C1171.29 361.853 1168.82 359.917 1166.18 360.374C1166.15 360.374 1166.12 360.389 1166.09 360.389C1163.8 360.786 1162.2 362.844 1162.35 365.161L1163.54 382.28Z" stroke="#FFDFD1" stroke-miterlimit="10"/>
<path d="M1186.75 379.323C1183.65 379.567 1180.61 379.856 1177.62 380.192L1176.58 363.103C1176.43 360.694 1178.22 358.59 1180.63 358.346C1180.66 358.346 1180.69 358.346 1180.72 358.331C1183.27 358.072 1185.51 359.978 1185.68 362.523L1186.75 379.323Z" stroke="#FFDFD1" stroke-miterlimit="10"/>
<path d="M1200.69 378.637C1198.74 378.683 1196.77 378.728 1194.77 378.82C1193.69 378.865 1192.61 378.926 1191.54 378.987L1190.44 361.975C1190.27 359.459 1192.21 357.325 1194.73 357.203C1194.74 357.203 1194.76 357.203 1194.77 357.203C1194.83 357.203 1194.88 357.203 1194.94 357.203C1197.38 357.096 1199.46 358.971 1199.61 361.411L1200.69 378.637Z" stroke="#FFDFD1" stroke-miterlimit="10"/>
<path d="M1215.13 378.743C1212.12 378.622 1209.05 378.591 1205.94 378.591L1204.84 361.792C1204.67 359.185 1206.78 356.959 1209.39 357.005C1209.42 357.005 1209.45 357.005 1209.48 357.005C1211.82 357.035 1213.74 358.865 1213.89 361.182L1215.13 378.743Z" stroke="#FFDFD1" stroke-miterlimit="10"/>
<path d="M1230.63 379.856L1229.41 362.051C1229.26 359.825 1227.5 358.041 1225.29 357.843C1225.26 357.843 1225.23 357.843 1225.2 357.828C1222.42 357.584 1220.09 359.886 1220.28 362.661L1221.41 379.064C1224.04 379.231 1226.59 379.46 1229.09 379.719L1230.63 379.856Z" stroke="#FFDFD1" stroke-miterlimit="10"/>
<path d="M1149 329.001C1148.97 329.016 1148.94 329.016 1148.91 329.031C1146.8 329.58 1145.37 331.562 1145.52 333.727L1146.71 350.846C1149.61 350.084 1152.61 349.367 1155.74 348.712L1154.66 333.071C1154.46 330.251 1151.74 328.284 1149 329.001Z" stroke="#FFDFD1" stroke-miterlimit="10"/>
<path d="M1160.9 347.721C1163.84 347.187 1166.88 346.7 1169.98 346.273L1168.83 329.961C1168.65 327.293 1166.18 325.357 1163.54 325.815C1163.51 325.815 1163.48 325.83 1163.45 325.83C1161.16 326.226 1159.56 328.284 1159.71 330.601L1160.9 347.721Z" stroke="#FFDFD1" stroke-miterlimit="10"/>
<path d="M1184.11 344.779C1181.01 345.023 1177.97 345.312 1174.98 345.648L1173.95 328.559C1173.79 326.15 1175.58 324.046 1177.99 323.802C1178.02 323.802 1178.05 323.802 1178.08 323.787C1180.63 323.528 1182.87 325.433 1183.04 327.979L1184.11 344.779Z" stroke="#FFDFD1" stroke-miterlimit="10"/>
<path d="M1198.05 344.093C1196.1 344.139 1194.13 344.184 1192.13 344.276C1191.05 344.322 1189.97 344.383 1188.9 344.443L1187.8 327.431C1187.63 324.915 1189.57 322.781 1192.09 322.659C1192.1 322.659 1192.12 322.659 1192.13 322.659C1192.19 322.659 1192.24 322.659 1192.3 322.659C1194.74 322.552 1196.82 324.427 1196.97 326.867L1198.05 344.093Z" stroke="#FFDFD1" stroke-miterlimit="10"/>
<path d="M1212.5 344.2C1209.5 344.078 1206.43 344.047 1203.32 344.047L1202.22 327.248C1202.05 324.641 1204.16 322.415 1206.77 322.461C1206.8 322.461 1206.83 322.461 1206.86 322.461C1209.19 322.491 1211.11 324.321 1211.27 326.638L1212.5 344.2Z" stroke="#FFDFD1" stroke-miterlimit="10"/>
<path d="M1228.08 345.312L1226.77 327.507C1226.62 325.281 1224.86 323.498 1222.65 323.299C1222.62 323.299 1222.59 323.299 1222.56 323.284C1219.78 323.04 1217.45 325.342 1217.64 328.117L1218.77 344.52C1221.4 344.687 1223.95 344.916 1226.45 345.175L1228.08 345.312Z" stroke="#FFDFD1" stroke-miterlimit="10"/>
<path d="M1188.68 280.173C1165.26 281.225 1144.18 285.417 1128.87 291.347V294.564C1144.18 288.618 1165.26 284.441 1188.68 283.389C1207.41 282.551 1225.04 283.908 1239.34 286.774V283.511C1225.01 280.63 1207.51 279.334 1188.68 280.173Z" stroke="#FFDFD1" stroke-miterlimit="10"/>
<path d="M1146.21 294.731C1146.18 294.746 1146.15 294.746 1146.11 294.762C1144.01 295.31 1142.57 297.292 1142.73 299.457L1143.92 316.592C1146.82 315.83 1149.82 315.113 1152.95 314.458L1151.87 298.817C1151.67 295.981 1148.95 294.015 1146.21 294.731Z" stroke="#FFDFD1" stroke-miterlimit="10"/>
<path d="M1158.11 313.451C1161.05 312.918 1164.09 312.43 1167.19 312.003L1166.04 295.692C1165.86 293.024 1163.39 291.088 1160.75 291.545C1160.72 291.545 1160.69 291.56 1160.66 291.56C1158.37 291.957 1156.76 294.015 1156.92 296.332L1158.11 313.451Z" stroke="#FFDFD1" stroke-miterlimit="10"/>
<path d="M1181.31 310.494C1178.22 310.738 1175.18 311.028 1172.19 311.363L1171.15 294.274C1171 291.865 1172.79 289.762 1175.2 289.518C1175.23 289.518 1175.26 289.518 1175.29 289.502C1177.84 289.243 1180.08 291.149 1180.25 293.695L1181.31 310.494Z" stroke="#FFDFD1" stroke-miterlimit="10"/>
<path d="M1195.26 309.823C1193.31 309.869 1191.34 309.915 1189.34 310.006C1188.26 310.052 1187.17 310.113 1186.11 310.174L1185.01 293.161C1184.84 290.646 1186.78 288.511 1189.29 288.389C1189.31 288.389 1189.33 288.389 1189.34 288.389C1189.4 288.389 1189.45 288.389 1189.51 288.389C1191.95 288.283 1194.02 290.158 1194.18 292.597L1195.26 309.823Z" stroke="#FFDFD1" stroke-miterlimit="10"/>
<path d="M1209.71 309.915C1206.7 309.793 1203.64 309.762 1200.52 309.762L1199.43 292.963C1199.26 290.356 1201.36 288.13 1203.97 288.176C1204 288.176 1204.03 288.176 1204.06 288.176C1206.4 288.206 1208.32 290.036 1208.47 292.353L1209.71 309.915Z" stroke="#FFDFD1" stroke-miterlimit="10"/>
<path d="M1225.2 311.073L1223.98 293.237C1223.82 291.012 1222.07 289.228 1219.86 289.03C1219.83 289.03 1219.8 289.03 1219.76 289.015C1216.99 288.771 1214.65 291.073 1214.85 293.847L1215.98 310.25C1218.61 310.418 1221.15 310.647 1223.66 310.906L1225.2 311.073Z" stroke="#FFDFD1" stroke-miterlimit="10"/>
<path d="M1186.78 245.796C1163.36 246.848 1142.27 251.04 1126.97 256.971V260.187C1142.27 254.242 1163.36 250.065 1186.78 249.013C1205.5 248.174 1223.14 249.531 1237.43 252.397V249.135C1223.11 246.238 1205.61 244.943 1186.78 245.796Z" stroke="#FFDFD1" stroke-miterlimit="10"/>
<path d="M1144.3 260.34C1144.27 260.355 1144.24 260.355 1144.21 260.37C1142.1 260.919 1140.67 262.901 1140.82 265.065L1142.01 282.2C1144.91 281.438 1147.92 280.721 1151.04 280.066L1149.96 264.425C1149.76 261.59 1147.05 259.623 1144.3 260.34Z" stroke="#FFDFD1" stroke-miterlimit="10"/>
<path d="M1156.2 279.075C1159.14 278.542 1162.18 278.054 1165.28 277.627L1164.13 261.315C1163.95 258.648 1161.48 256.712 1158.84 257.169C1158.81 257.169 1158.78 257.184 1158.75 257.184C1156.46 257.58 1154.86 259.638 1155.01 261.956L1156.2 279.075Z" stroke="#FFDFD1" stroke-miterlimit="10"/>
<path d="M1179.41 276.118C1176.31 276.361 1173.27 276.651 1170.28 276.986L1169.25 259.897C1169.09 257.489 1170.88 255.385 1173.29 255.141C1173.32 255.141 1173.35 255.141 1173.38 255.126C1175.93 254.867 1178.17 256.772 1178.34 259.318L1179.41 276.118Z" stroke="#FFDFD1" stroke-miterlimit="10"/>
<path d="M1193.35 275.432C1191.4 275.477 1189.43 275.523 1187.43 275.615C1186.35 275.66 1185.27 275.721 1184.2 275.782L1183.1 258.77C1182.93 256.254 1184.87 254.12 1187.39 253.998C1187.4 253.998 1187.42 253.998 1187.43 253.998C1187.49 253.998 1187.54 253.998 1187.6 253.998C1190.04 253.891 1192.12 255.766 1192.27 258.205L1193.35 275.432Z" stroke="#FFDFD1" stroke-miterlimit="10"/>
<path d="M1207.79 275.538C1204.78 275.416 1201.71 275.386 1198.6 275.386L1197.5 258.587C1197.34 255.98 1199.44 253.754 1202.05 253.8C1202.08 253.8 1202.11 253.8 1202.14 253.8C1204.48 253.83 1206.4 255.66 1206.55 257.977L1207.79 275.538Z" stroke="#FFDFD1" stroke-miterlimit="10"/>
<path d="M1223.29 276.773L1222.07 258.846C1221.92 256.62 1220.16 254.836 1217.95 254.638C1217.92 254.638 1217.89 254.638 1217.86 254.623C1215.08 254.379 1212.75 256.681 1212.94 259.455L1214.07 275.859C1216.7 276.026 1219.25 276.255 1221.75 276.514L1223.29 276.773Z" stroke="#FFDFD1" stroke-miterlimit="10"/>
<path d="M1184.6 211.999C1161.17 213.051 1140.09 217.244 1124.78 223.174V226.39C1140.09 220.445 1161.17 216.268 1184.6 215.216C1203.32 214.378 1220.96 215.734 1235.25 218.6V215.338C1220.92 212.457 1203.42 211.161 1184.6 211.999Z" stroke="#FFDFD1" stroke-miterlimit="10"/>
<path d="M1142.12 226.558C1142.09 226.573 1142.06 226.573 1142.03 226.588C1139.92 227.137 1138.49 229.119 1138.64 231.284L1139.83 248.403C1142.73 247.641 1145.73 246.924 1148.86 246.269L1147.78 230.628C1147.58 227.808 1144.86 225.841 1142.12 226.558Z" stroke="#FFDFD1" stroke-miterlimit="10"/>
<path d="M1154.02 245.278C1156.96 244.745 1160 244.257 1163.1 243.83L1161.95 227.518C1161.77 224.85 1159.3 222.914 1156.66 223.372C1156.63 223.372 1156.6 223.387 1156.57 223.387C1154.28 223.783 1152.68 225.841 1152.83 228.159L1154.02 245.278Z" stroke="#FFDFD1" stroke-miterlimit="10"/>
<path d="M1177.23 242.321C1174.13 242.565 1171.09 242.854 1168.1 243.19L1167.06 226.101C1166.91 223.692 1168.7 221.588 1171.11 221.344C1171.14 221.344 1171.17 221.344 1171.2 221.329C1173.75 221.07 1175.99 222.975 1176.16 225.521L1177.23 242.321Z" stroke="#FFDFD1" stroke-miterlimit="10"/>
<path d="M1191.17 241.65C1189.22 241.696 1187.25 241.741 1185.25 241.833C1184.17 241.879 1183.08 241.939 1182.02 242L1180.92 224.988C1180.75 222.472 1182.69 220.338 1185.21 220.216C1185.22 220.216 1185.24 220.216 1185.25 220.216C1185.31 220.216 1185.36 220.216 1185.42 220.201C1187.86 220.094 1189.94 221.969 1190.09 224.408L1191.17 241.65Z" stroke="#FFDFD1" stroke-miterlimit="10"/>
<path d="M1205.62 241.741C1202.61 241.619 1199.55 241.589 1196.44 241.589L1195.34 224.789C1195.17 222.183 1197.27 219.957 1199.88 220.003C1199.91 220.003 1199.94 220.003 1199.98 220.003C1202.31 220.033 1204.23 221.862 1204.38 224.18L1205.62 241.741Z" stroke="#FFDFD1" stroke-miterlimit="10"/>
<path d="M1221.21 242.976L1219.89 225.049C1219.73 222.823 1217.98 221.039 1215.77 220.841C1215.74 220.841 1215.71 220.841 1215.68 220.826C1212.9 220.582 1210.56 222.884 1210.76 225.658L1211.89 242.061C1214.52 242.229 1217.06 242.458 1219.57 242.717L1221.21 242.976Z" stroke="#FFDFD1" stroke-miterlimit="10"/>
<path d="M1180.81 177.608C1157.39 178.66 1136.3 182.852 1121 188.782V191.999C1136.3 186.053 1157.39 181.876 1180.81 180.824C1199.53 179.986 1217.17 181.343 1231.47 184.209V180.946C1217.14 178.065 1199.64 176.769 1180.81 177.608Z" stroke="#FFDFD1" stroke-miterlimit="10"/>
<path d="M1135.71 155.229C1148.34 152.089 1163.1 149.939 1178.9 149.238C1191.02 148.689 1202.68 149.07 1213.27 150.183V146.921C1202.69 145.823 1191.08 145.472 1178.9 146.021C1163.13 146.738 1148.42 148.857 1135.82 151.997L1135.71 155.229Z" stroke="#FFDFD1" stroke-miterlimit="10"/>
<path d="M1139.48 192.974C1139.45 192.99 1139.42 192.99 1139.39 193.005C1137.28 193.554 1135.85 195.535 1136 197.7L1137.19 214.82C1140.09 214.057 1143.09 213.341 1146.22 212.685L1145.14 197.045C1144.94 194.224 1142.22 192.258 1139.48 192.974Z" stroke="#FFDFD1" stroke-miterlimit="10"/>
<path d="M1151.38 211.695C1154.32 211.161 1157.36 210.673 1160.46 210.246L1159.31 193.935C1159.13 191.267 1156.66 189.331 1154.02 189.788C1153.99 189.788 1153.96 189.804 1153.93 189.804C1151.64 190.2 1150.04 192.258 1150.19 194.575L1151.38 211.695Z" stroke="#FFDFD1" stroke-miterlimit="10"/>
<path d="M1174.59 208.752C1171.49 208.996 1168.45 209.286 1165.46 209.621L1164.42 192.532C1164.27 190.124 1166.06 188.02 1168.47 187.776C1168.5 187.776 1168.53 187.776 1168.56 187.761C1171.11 187.502 1173.35 189.407 1173.52 191.953L1174.59 208.752Z" stroke="#FFDFD1" stroke-miterlimit="10"/>
<path d="M1188.53 208.066C1186.58 208.112 1184.61 208.158 1182.61 208.249C1181.53 208.295 1180.45 208.356 1179.38 208.417L1178.28 191.404C1178.11 188.889 1180.05 186.754 1182.57 186.633C1182.58 186.633 1182.6 186.633 1182.61 186.633C1182.67 186.633 1182.72 186.633 1182.78 186.633C1185.22 186.526 1187.3 188.401 1187.45 190.84L1188.53 208.066Z" stroke="#FFDFD1" stroke-miterlimit="10"/>
<path d="M1202.98 208.173C1199.98 208.051 1196.91 208.02 1193.8 208.02L1192.7 191.221C1192.53 188.614 1194.64 186.389 1197.24 186.434C1197.27 186.434 1197.31 186.434 1197.34 186.434C1199.67 186.465 1201.59 188.294 1201.75 190.611L1202.98 208.173Z" stroke="#FFDFD1" stroke-miterlimit="10"/>
<path d="M1168.01 175.397C1164.91 175.641 1161.88 175.931 1158.89 176.266L1157.85 159.177C1157.7 156.769 1159.48 154.665 1161.89 154.421C1161.92 154.421 1161.95 154.421 1161.98 154.406C1164.53 154.147 1166.77 156.052 1166.94 158.598L1168.01 175.397Z" stroke="#FFDFD1" stroke-miterlimit="10"/>
<path d="M1182.18 174.178C1180.23 174.224 1178.26 174.269 1176.26 174.361C1175.18 174.406 1174.1 174.467 1173.03 174.528L1171.93 157.516C1171.76 155 1173.7 152.866 1176.22 152.744C1176.23 152.744 1176.25 152.744 1176.26 152.744C1176.33 152.744 1176.37 152.744 1176.43 152.744C1178.87 152.637 1180.95 154.512 1181.1 156.952L1182.18 174.178Z" stroke="#FFDFD1" stroke-miterlimit="10"/>
<path d="M1196.39 174.193C1193.38 174.086 1190.32 174.041 1187.2 174.041L1186.11 157.729C1185.94 155.198 1188.04 153.049 1190.65 153.079C1190.68 153.079 1190.71 153.079 1190.74 153.079C1193.08 153.11 1195 154.878 1195.15 157.134L1196.39 174.193Z" stroke="#FFDFD1" stroke-miterlimit="10"/>
<path d="M1218.47 209.271L1217.25 191.465C1217.09 189.239 1215.34 187.456 1213.13 187.258C1213.1 187.258 1213.07 187.258 1213.04 187.242C1210.26 186.998 1207.92 189.3 1208.12 192.075L1209.25 208.478C1211.88 208.646 1214.42 208.874 1216.93 209.133L1218.47 209.271Z" stroke="#FFDFD1" stroke-miterlimit="10"/>
</g>
</g>
<g clip-path="url(#clip1_771_1585)">
<path d="M266.68 366.93L293.76 489.93L298.68 487.62L270.24 366.23L266.68 366.93Z" fill="#E0CBBF"/>
<path d="M220 388.26C220 388.26 231.67 367.29 263.3 349.14C263.3 349.14 289.04 346.95 318.09 359.61C318.09 359.61 323.98 369.4 317.29 373.25C310.6 377.11 305.04 369.35 305.04 369.35C305.04 369.35 303.8 381.17 295.07 381.51C286.34 381.85 283.77 373.25 283.77 373.25C283.77 373.25 282.9 384.11 272.48 386.85C263.43 389.23 257.8 381.52 257.8 381.52C257.8 381.52 256 390.43 247.89 393.01C241.37 395.08 236.9 389.47 236.9 389.47C236.9 389.47 235.03 399.14 228.11 399.14C222.18 399.14 220 388.26 220 388.26Z" fill="#C8B5AA"/>
</g>
<g clip-path="url(#clip2_771_1585)">
<path d="M1632.37 500.04C1632.37 500.04 1615.63 384.46 1653.32 264.92L1647.41 260.36C1647.41 260.36 1603.25 350.76 1609.68 503.28L1632.37 500.04Z" fill="#E0CBBF"/>
<path d="M1663.57 233.54C1677.39 224.49 1697.84 238.9 1700.64 261.41C1700.64 261.41 1698.26 259.94 1694.3 258.4C1693.23 252.74 1692.2 247.72 1692.2 247.72L1692.93 257.89C1691.72 257.46 1690.39 257.03 1688.95 256.64L1688 251.16L1687.55 256.27C1685.71 255.82 1683.71 255.46 1681.61 255.22L1679.03 239.25L1677.69 254.94C1675.71 254.89 1673.66 254.96 1671.56 255.21L1669.98 244.35L1669.97 255.43C1668.27 255.7 1666.54 256.1 1664.79 256.63L1662.9 240.43C1662.9 240.43 1662.96 249.54 1662.85 257.27C1658.42 258.86 1653.91 261.35 1649.51 265.12L1649.37 263.12C1649.36 263.11 1650.96 241.81 1663.57 233.54Z" fill="#C8B5AA"/>
<path d="M1644.48 226.31C1633.51 213.95 1610 222.51 1601.4 243.51C1601.4 243.51 1604.09 242.71 1608.31 242.26C1610.82 237.07 1613.13 232.5 1613.13 232.5L1609.76 242.12C1611.05 242.02 1612.44 241.95 1613.93 241.95L1616.28 236.92L1615.38 241.97C1617.28 242.02 1619.3 242.19 1621.39 242.51L1628.05 227.77L1625.24 243.26C1627.16 243.72 1629.12 244.34 1631.09 245.13L1635.46 235.06L1632.58 245.76C1634.15 246.47 1635.72 247.3 1637.27 248.27L1643.33 233.12C1643.33 233.12 1640.89 241.9 1638.97 249.38C1642.83 252.07 1646.53 255.66 1649.8 260.45L1650.46 258.56C1650.46 258.56 1654.49 237.58 1644.48 226.31Z" fill="#C8B5AA"/>
<path d="M1633.9 255.6C1644.9 244.86 1653.16 254.21 1653.16 254.21C1649.03 255.28 1645.35 257.93 1642.13 261.3L1640.64 259.36L1640.88 262.67C1640.11 263.55 1639.38 264.47 1638.67 265.42L1636.15 259.69L1637.22 267.45C1636.21 268.94 1635.27 270.46 1634.4 271.98L1633.29 266.29L1633.37 273.83C1632.45 275.53 1631.63 277.2 1630.9 278.77L1629.7 268.34L1629.54 281.82C1627.78 285.98 1626.87 288.9 1626.87 288.9C1626.87 288.9 1622.91 266.33 1633.9 255.6Z" fill="#C8B5AA"/>
<path d="M1663.6 280.96L1661.33 282.27C1661 280.52 1660.62 278.69 1660.18 276.83L1661.73 274L1659.79 275.2C1659.63 274.58 1659.47 273.97 1659.31 273.35L1661.29 267.81L1658.33 270.02C1656.73 265.03 1654.69 260.63 1652.13 258.53C1652.13 258.53 1677.36 266.59 1663.1 293.78C1663.1 293.78 1662.64 289.47 1661.63 283.82L1663.6 280.96Z" fill="#C8B5AA"/>
<path d="M1638.79 258.71L1634.76 251.11L1636.42 259.02C1636.02 259.09 1635.61 259.16 1635.2 259.24L1629.97 252.73L1631.26 260.22C1629.58 260.73 1627.83 261.36 1626.01 262.16C1624.16 262.97 1622.34 263.9 1620.56 264.91L1618.01 258.26L1619.2 265.7C1617.47 266.73 1615.79 267.83 1614.17 268.97L1612.9 263.11L1613.02 269.79C1611.04 271.22 1609.17 272.69 1607.44 274.11L1607.6 263.49L1606.06 275.28C1604.29 276.79 1602.71 278.23 1601.36 279.5L1601.16 272.13L1599.3 281.48C1597.35 283.41 1596.24 284.64 1596.24 284.64C1597.25 258.85 1607.24 248.61 1623.78 245.84C1640.32 243.08 1652.24 260.25 1652.24 260.25C1652.24 260.25 1647.16 257.87 1638.79 258.71Z" fill="#C8B5AA"/>
<path d="M1687.03 290.23L1685.52 297.92C1684.8 296.01 1683.8 293.56 1682.56 290.83L1683.91 279.58L1681.43 288.45C1679.61 284.72 1677.36 280.65 1674.71 276.85L1677.06 269.05L1673.24 274.84C1672.48 273.84 1671.69 272.86 1670.86 271.92L1672.2 267.01L1670.13 271.11C1669.57 270.5 1668.99 269.91 1668.4 269.34L1670.02 262.79L1667.44 268.45C1665.77 266.95 1664 265.65 1662.14 264.63L1664.77 256.62C1664.77 256.62 1662.92 259.88 1660.65 263.88C1658.06 262.69 1655.29 262.05 1652.36 262.15C1652.36 262.15 1657.33 254.16 1666.55 251.4C1675.77 248.64 1695.55 265.29 1686.95 302C1686.95 302 1686.69 301.16 1686.18 299.74L1687.03 290.23Z" fill="#C8B5AA"/>
<path d="M1671.87 218.91L1673.44 223.57C1672.93 223.6 1672.35 223.67 1671.72 223.81L1669.83 217.75L1671.09 223.98C1670.07 224.28 1668.92 224.76 1667.69 225.53L1665.08 217.34L1666.61 226.27C1666.2 226.58 1665.77 226.92 1665.35 227.29L1662.41 219.6L1664.63 227.95C1662.85 229.67 1660.98 232.04 1659.12 235.29L1658.31 224.02L1657.01 239.41C1655.19 243.34 1653.42 248.24 1651.81 254.32C1651.81 254.32 1650.21 213.36 1660.08 208.72C1669.95 204.08 1675.82 223.8 1675.82 223.8C1675.82 223.8 1675.33 223.63 1674.47 223.58L1671.87 218.91Z" fill="#C8B5AA"/>
<path d="M1657.77 264.51L1656.89 272.28L1653.93 264.79L1649.91 270.66L1648.34 265.2L1643.71 269.08C1643.71 269.08 1644.28 259.17 1647.23 254.64C1650.18 250.1 1659.02 253.29 1657.77 264.51Z" fill="#C8B5AA"/>
<path d="M1534.6 389.45V335.27C1534.6 335.27 1523.61 346.94 1516.32 345.36C1509.03 343.78 1499.54 349.29 1499.54 349.29C1499.54 349.29 1509.08 347.9 1512.62 351.77C1516.16 355.64 1531.96 356.05 1531.96 356.05V391.43L1534.6 389.45Z" fill="#C8B5AA"/>
<path d="M1583.08 372.84H1580.59V376.25H1572.34V372.84H1564.25V376.25H1556.01V372.84H1547.91V376.25H1539.67V372.84H1531.58V376.25H1523.33V372.84H1515.24V376.25H1506.99V372.84H1498.9V376.25H1490.66V372.84H1487.89L1479.85 437.04L1591.39 436.58L1583.08 372.84Z" fill="#C8B5AA"/>
<path d="M1600.83 419.44H1597.4V424.12H1586.08V419.44H1574.96V424.12H1563.63V419.44H1552.51V424.12H1541.18V419.44H1530.06V424.12H1518.74V419.44H1507.62V424.12H1496.29V419.44H1485.17V424.12H1473.84V419.44H1470.04L1459 507.65L1612.25 507.01L1600.83 419.44Z" fill="#E9D6CC"/>
</g>
<defs>
<linearGradient id="paint0_linear_771_1585" x1="960" y1="-100.748" x2="960" y2="469" gradientUnits="userSpaceOnUse">
<stop stop-color="white" stop-opacity="0"/>
<stop offset="0.487732" stop-color="#FFECE4" stop-opacity="0.271618"/>
<stop offset="0.687034" stop-color="#FFECE4" stop-opacity="0.8"/>
<stop offset="0.902927" stop-color="#FFECE4"/>
</linearGradient>
<linearGradient id="paint1_linear_771_1585" x1="577.5" y1="0" x2="577.5" y2="323" gradientUnits="userSpaceOnUse">
<stop stop-color="white" stop-opacity="0"/>
<stop offset="0.780076" stop-color="#FFECE4"/>
</linearGradient>
<clipPath id="clip0_771_1585">
<rect width="1155" height="323" fill="white" transform="translate(354 145)"/>
</clipPath>
<clipPath id="clip1_771_1585">
<rect width="100.49" height="140.93" fill="white" transform="translate(220 349)"/>
</clipPath>
<clipPath id="clip2_771_1585">
<rect width="241.64" height="299.65" fill="white" transform="translate(1459 208)"/>
</clipPath>
</defs>
        </svg>

