<svg width="18" height="18" viewBox="0 0 18 18" fill="none" xmlns="http://www.w3.org/2000/svg">
<path d="M6.55344 5.83516L3.6352 8.81805C2.75791 9.71475 2.31927 10.1631 2.25947 10.7102C2.24684 10.8257 2.24684 10.9424 2.25947 11.058C2.31927 11.605 2.75791 12.0533 3.6352 12.9501L3.74701 13.0643C4.21537 13.5431 4.44955 13.7825 4.72978 13.9433C4.8927 14.0368 5.06611 14.11 5.24629 14.1615C5.5562 14.25 5.88862 14.25 6.55344 14.25C7.21827 14.25 7.5507 14.25 7.8606 14.1615C8.04075 14.11 8.21415 14.0368 8.37713 13.9433C8.65733 13.7825 8.89155 13.5431 9.35985 13.0643L11.4929 10.8841M6.55344 5.83516L9.23992 3.09235C10.2799 2.03065 10.7998 1.49981 11.447 1.5C12.0942 1.5002 12.6139 2.03134 13.6532 3.09365L14.2105 3.66338C15.2369 4.71257 15.7501 5.23716 15.75 5.88756C15.7498 6.53796 15.2363 7.06225 14.2092 8.1108L11.4929 10.8841M6.55344 5.83516L11.4929 10.8841" stroke="#9e9e9e" stroke-width="1.5" stroke-linecap="round" stroke-linejoin="round"/>
<path d="M7.5 16.5H15.75" stroke="#9e9e9e" stroke-width="1.5" stroke-linecap="round" stroke-linejoin="round"/>
</svg>
