<svg width="20" height="20" viewBox="0 0 20 20" fill="none" xmlns="http://www.w3.org/2000/svg">
<g clip-path="url(#clip0_1_236)">
<path d="M6.66699 13.3333L13.9337 12.7277C16.2075 12.5383 16.7179 12.0417 16.9699 9.77408L17.5003 5" stroke="#010A15" stroke-width="1.5" stroke-linecap="round"/>
<path d="M5 5H5.83333M18.3333 5H16.6667" stroke="#010A15" stroke-width="1.5" stroke-linecap="round"/>
<path d="M8.76282 1.98868C9.65665 1.45561 10.4368 1.67043 10.9056 2.01262C11.0977 2.15293 11.1938 2.22308 11.2503 2.22308C11.3068 2.22308 11.4029 2.15293 11.5951 2.01262C12.0638 1.67043 12.844 1.45561 13.7378 1.98868C14.911 2.68829 15.1764 4.99632 12.4705 6.94352C11.9551 7.3144 11.6974 7.49984 11.2503 7.49984C10.8032 7.49984 10.5456 7.3144 10.0302 6.94352C7.32423 4.99632 7.58968 2.68829 8.76282 1.98868Z" stroke="#DD2509" stroke-width="1.5" stroke-linecap="round"/>
<path d="M4.99967 18.3333C5.92015 18.3333 6.66634 17.5871 6.66634 16.6667C6.66634 15.7462 5.92015 15 4.99967 15C4.0792 15 3.33301 15.7462 3.33301 16.6667C3.33301 17.5871 4.0792 18.3333 4.99967 18.3333Z" stroke="#010A15" stroke-width="1.5"/>
<path d="M14.1667 18.3333C15.0871 18.3333 15.8333 17.5871 15.8333 16.6667C15.8333 15.7462 15.0871 15 14.1667 15C13.2462 15 12.5 15.7462 12.5 16.6667C12.5 17.5871 13.2462 18.3333 14.1667 18.3333Z" stroke="#010A15" stroke-width="1.5"/>
<path d="M6.66699 16.6665H12.5003" stroke="#010A15" stroke-width="1.5" stroke-linecap="round"/>
<path d="M1.66699 1.6665H2.47199C3.25923 1.6665 3.94544 2.187 4.13638 2.92895L6.61576 12.5636C6.74105 13.0505 6.63383 13.5663 6.32386 13.9678L5.5271 14.9998" stroke="#010A15" stroke-width="1.5" stroke-linecap="round"/>
</g>
<defs>
<clipPath id="clip0_1_236">
<rect width="20" height="20" fill="white"/>
</clipPath>
</defs>
</svg>
