<svg width="24" height="24" viewBox="0 0 24 24" fill="none" xmlns="http://www.w3.org/2000/svg">
<path d="M22 5.907C21.2504 6.23437 20.4565 6.44903 19.644 6.544C20.4968 6.04323 21.138 5.2491 21.448 4.31C20.64 4.78032 19.7587 5.1116 18.841 5.29C18.4545 4.8852 17.9897 4.56338 17.4748 4.34417C16.9598 4.12497 16.4056 4.01296 15.846 4.015C13.58 4.015 11.743 5.825 11.743 8.055C11.743 8.371 11.779 8.68 11.849 8.975C10.2236 8.89769 8.63212 8.4824 7.17617 7.75564C5.72022 7.02887 4.43176 6.00658 3.393 4.754C3.02883 5.3684 2.83742 6.06978 2.839 6.784C2.8397 7.45196 3.00683 8.10923 3.32529 8.69639C3.64375 9.28355 4.1035 9.78211 4.663 10.147C4.01248 10.126 3.37602 9.95232 2.805 9.64V9.69C2.805 11.648 4.22 13.281 6.095 13.653C5.74261 13.7465 5.37958 13.7939 5.015 13.794C4.75 13.794 4.493 13.769 4.242 13.719C4.51008 14.5269 5.02311 15.2313 5.70982 15.7343C6.39653 16.2374 7.22284 16.5141 8.074 16.526C6.61407 17.6505 4.82182 18.258 2.979 18.253C2.647 18.253 2.321 18.233 2 18.197C3.88125 19.3877 6.06259 20.0183 8.289 20.015C15.836 20.015 19.962 13.858 19.962 8.519L19.948 7.996C20.7529 7.42967 21.4481 6.72184 22 5.907Z" fill="white"/>
</svg>
