<svg width="24" height="24" viewBox="0 0 24 24" fill="none" xmlns="http://www.w3.org/2000/svg">
<path d="M17.812 5.017H6.145C3.855 5.017 2 6.852 2 9.116V14.884C2 17.148 3.856 18.984 6.145 18.984H17.812C20.102 18.984 21.957 17.148 21.957 14.884V9.116C21.957 6.852 20.101 5.016 17.812 5.016V5.017ZM15.009 12.28L9.552 14.855C9.51872 14.871 9.48192 14.8784 9.44503 14.8764C9.40815 14.8743 9.37237 14.863 9.34103 14.8435C9.3097 14.8239 9.28382 14.7967 9.2658 14.7645C9.24779 14.7322 9.23822 14.6959 9.238 14.659V9.35C9.23867 9.31287 9.24872 9.27652 9.26722 9.24432C9.28573 9.21213 9.31208 9.18514 9.34382 9.16588C9.37556 9.14661 9.41167 9.13569 9.44877 9.13414C9.48587 9.13259 9.52276 9.14045 9.556 9.157L15.014 11.892C15.0504 11.9101 15.0809 11.9381 15.102 11.9728C15.1232 12.0075 15.1341 12.0474 15.1336 12.0881C15.1331 12.1287 15.1211 12.1683 15.0991 12.2025C15.077 12.2366 15.0458 12.2638 15.009 12.281V12.28Z" fill="white"/>
</svg>
