<svg width="18" height="18" viewBox="0 0 18 18" fill="none" xmlns="http://www.w3.org/2000/svg">
<g clip-path="url(#clip0_209_153)">
<path d="M7.5 4.5C7.5 2.84314 6.15685 1.5 4.5 1.5C2.84314 1.5 1.5 2.84314 1.5 4.5C1.5 6.15685 2.84314 7.5 4.5 7.5C6.15685 7.5 7.5 6.15685 7.5 4.5Z" fill="#FF9900" stroke="#DD2509" stroke-width="1.5"/>
<path d="M7.5 13.5C7.5 11.8432 6.15685 10.5 4.5 10.5C2.84314 10.5 1.5 11.8432 1.5 13.5C1.5 15.1568 2.84314 16.5 4.5 16.5C6.15685 16.5 7.5 15.1568 7.5 13.5Z" fill="#FF9900" stroke="#DD2509" stroke-width="1.5"/>
<path d="M16.5 4.5C16.5 2.84314 15.1568 1.5 13.5 1.5C11.8432 1.5 10.5 2.84314 10.5 4.5C10.5 6.15685 11.8432 7.5 13.5 7.5C15.1568 7.5 16.5 6.15685 16.5 4.5Z" fill="#FF9900" stroke="#DD2509" stroke-width="1.5"/>
<path d="M16.5 13.5C16.5 11.8432 15.1568 10.5 13.5 10.5C11.8432 10.5 10.5 11.8432 10.5 13.5C10.5 15.1568 11.8432 16.5 13.5 16.5C15.1568 16.5 16.5 15.1568 16.5 13.5Z" fill="#FF9900" stroke="#DD2509" stroke-width="1.5"/>
</g>
<defs>
<clipPath id="clip0_209_153">
<rect width="18" height="18" fill="white"/>
</clipPath>
</defs>
</svg>
