<svg width="18" height="18" viewBox="0 0 18 18" fill="none" xmlns="http://www.w3.org/2000/svg">
<path d="M11.7632 7.44994L12.1592 8.24843C12.2132 8.35958 12.3572 8.46615 12.4787 8.48655L13.1963 8.60678C13.6553 8.68395 13.7633 9.01965 13.4325 9.35078L12.8746 9.91335C12.7801 10.0086 12.7283 10.1924 12.7576 10.3239L12.9173 11.0203C13.0433 11.5715 12.7531 11.7848 12.2694 11.4967L11.5967 11.0952C11.4752 11.0226 11.2751 11.0226 11.1513 11.0952L10.4786 11.4967C9.9972 11.7848 9.7047 11.5693 9.8307 11.0203L9.99045 10.3239C10.0196 10.1924 9.96795 10.0086 9.87345 9.91335L9.31553 9.35078C8.98703 9.01965 9.09278 8.68395 9.5517 8.60678L10.2694 8.48655C10.3886 8.46615 10.5326 8.35958 10.5866 8.24843L10.9826 7.44994C11.1986 7.01669 11.5495 7.01669 11.7632 7.44994Z" stroke="#DD2509" stroke-width="1.5" stroke-linecap="round" stroke-linejoin="round"/>
<path d="M6.49951 13.125V15.75" stroke="#010A15" stroke-width="1.5" stroke-linecap="round" stroke-linejoin="round"/>
<path d="M6.49951 3V5.625" stroke="#010A15" stroke-width="1.5" stroke-linecap="round" stroke-linejoin="round"/>
<path d="M16.9997 7.03421C16.9495 5.87765 16.8089 5.12473 16.4149 4.52913C16.1883 4.18647 15.9068 3.88844 15.5831 3.64851C14.7082 3 13.4739 3 11.0055 3H7.99448C5.52602 3 4.29179 3 3.4169 3.64851C3.09323 3.88844 2.81169 4.18647 2.58504 4.52913C2.19113 5.12467 2.05051 5.87749 2.00031 7.03382C1.99172 7.23156 2.16205 7.38281 2.34867 7.38281C3.38801 7.38281 4.23056 8.27475 4.23056 9.375C4.23056 10.4753 3.38801 11.3672 2.34867 11.3672C2.16205 11.3672 1.99172 11.5184 2.00031 11.7162C2.05051 12.8726 2.19113 13.6253 2.58504 14.2209C2.81169 14.5635 3.09323 14.8615 3.4169 15.1015C4.29179 15.75 5.52602 15.75 7.99448 15.75H11.0055C13.4739 15.75 14.7082 15.75 15.5831 15.1015C15.9068 14.8615 16.1883 14.5635 16.4149 14.2209C16.8089 13.6253 16.9495 12.8723 16.9997 11.7158V7.03421Z" stroke="#010A15" stroke-width="1.5" stroke-linejoin="round"/>
</svg>
