<svg width="18" height="18" viewBox="0 0 18 18" fill="none" xmlns="http://www.w3.org/2000/svg">
<path d="M16.9997 7.03421C16.9495 5.87765 16.8089 5.12473 16.4149 4.52913C16.1883 4.18647 15.9068 3.88844 15.5831 3.64851C14.7082 3 13.4739 3 11.0055 3H7.99448C5.52602 3 4.29179 3 3.4169 3.64851C3.09323 3.88844 2.81169 4.18647 2.58504 4.52913C2.19113 5.12467 2.05051 5.87749 2.00031 7.03382C1.99172 7.23156 2.16205 7.38281 2.34867 7.38281C3.38801 7.38281 4.23056 8.27475 4.23056 9.375C4.23056 10.4753 3.38801 11.3672 2.34867 11.3672C2.16205 11.3672 1.99172 11.5184 2.00031 11.7162C2.05051 12.8726 2.19113 13.6253 2.58504 14.2209C2.81169 14.5635 3.09323 14.8615 3.4169 15.1015C4.29179 15.75 5.52602 15.75 7.99448 15.75H11.0055C13.4739 15.75 14.7082 15.75 15.5831 15.1015C15.9068 14.8615 16.1883 14.5635 16.4149 14.2209C16.8089 13.6253 16.9495 12.8723 16.9997 11.7158V7.03421Z" fill="#FF9900" stroke="#DD2509" stroke-width="1.5" stroke-linejoin="round"/>
<path d="M11.7633 7.44994L12.1593 8.24843C12.2133 8.35958 12.3573 8.46615 12.4788 8.48655L13.1964 8.60678C13.6554 8.68395 13.7634 9.01965 13.4326 9.35078L12.8747 9.91335C12.7802 10.0086 12.7284 10.1924 12.7577 10.3239L12.9174 11.0203C13.0434 11.5715 12.7532 11.7848 12.2695 11.4967L11.5968 11.0952C11.4753 11.0226 11.2752 11.0226 11.1514 11.0952L10.4787 11.4967C9.99732 11.7848 9.70482 11.5693 9.83082 11.0203L9.99057 10.3239C10.0197 10.1924 9.96807 10.0086 9.87357 9.91335L9.31565 9.35078C8.98715 9.01965 9.0929 8.68395 9.55182 8.60678L10.2695 8.48655C10.3887 8.46615 10.5327 8.35958 10.5867 8.24843L10.9827 7.44994C11.1987 7.01669 11.5496 7.01669 11.7633 7.44994Z" stroke="#DD2509" stroke-width="1.5" stroke-linecap="round" stroke-linejoin="round"/>
<path d="M6.49963 13.125V15.75" stroke="#DD2509" stroke-width="1.5" stroke-linecap="round" stroke-linejoin="round"/>
<path d="M6.49963 3V5.625" stroke="#DD2509" stroke-width="1.5" stroke-linecap="round" stroke-linejoin="round"/>
</svg>
