<svg width="24" height="24" viewBox="0 0 24 24" fill="none" xmlns="http://www.w3.org/2000/svg">
<path d="M21.959 13.7189V21.0979H17.681V14.2129C17.681 12.4829 17.062 11.3029 15.514 11.3029C14.332 11.3029 13.628 12.0989 13.319 12.8679C13.206 13.1429 13.177 13.5259 13.177 13.9109V21.0979H8.897C8.897 21.0979 8.955 9.43788 8.897 8.22888H13.177V10.0529L13.149 10.0949H13.177V10.0529C13.745 9.17788 14.76 7.92688 17.033 7.92688C19.848 7.92688 21.959 9.76688 21.959 13.7189ZM4.421 2.02588C2.958 2.02588 2 2.98588 2 4.24888C2 5.48388 2.93 6.47288 4.365 6.47288H4.393C5.886 6.47288 6.813 5.48388 6.813 4.24888C6.787 2.98588 5.887 2.02588 4.422 2.02588H4.421ZM2.254 21.0979H6.532V8.22888H2.254V21.0979Z" fill="#3A3A3A"/>
</svg>
