<svg width="24" height="24" viewBox="0 0 24 24" fill="none" xmlns="http://www.w3.org/2000/svg">
<path d="M17.812 5.01711H6.145C3.855 5.01711 2 6.85211 2 9.11611V14.8841C2 17.1481 3.856 18.9841 6.145 18.9841H17.812C20.102 18.9841 21.957 17.1481 21.957 14.8841V9.11611C21.957 6.85211 20.101 5.01611 17.812 5.01611V5.01711ZM15.009 12.2801L9.552 14.8551C9.51872 14.8711 9.48192 14.8785 9.44503 14.8765C9.40815 14.8744 9.37237 14.8631 9.34103 14.8436C9.3097 14.824 9.28382 14.7968 9.2658 14.7646C9.24779 14.7323 9.23822 14.6961 9.238 14.6591V9.35011C9.23867 9.31299 9.24872 9.27663 9.26722 9.24444C9.28573 9.21224 9.31208 9.18526 9.34382 9.16599C9.37556 9.14673 9.41167 9.13581 9.44877 9.13425C9.48587 9.1327 9.52276 9.14057 9.556 9.15711L15.014 11.8921C15.0504 11.9102 15.0809 11.9383 15.102 11.9729C15.1232 12.0076 15.1341 12.0476 15.1336 12.0882C15.1331 12.1288 15.1211 12.1685 15.0991 12.2026C15.077 12.2367 15.0458 12.2639 15.009 12.2811V12.2801Z" fill="#3A3A3A"/>
</svg>
