<svg width="14" height="14" viewBox="0 0 14 14" fill="none" xmlns="http://www.w3.org/2000/svg">
<g clip-path="url(#clip0_1_1508)">
<path d="M10.5 1.16669V2.33335M3.5 1.16669V2.33335" stroke="#010A15" stroke-width="1.25" stroke-linecap="round" stroke-linejoin="round"/>
<path d="M6.99738 7.58331H7.00263M6.99738 9.91665H7.00263M9.32809 7.58331H9.33334M4.66667 7.58331H4.6719M4.66667 9.91665H4.6719" stroke="#DD2509" stroke-width="1.25" stroke-linecap="round" stroke-linejoin="round"/>
<path d="M2.04167 4.66669H11.9583" stroke="#010A15" stroke-width="1.25" stroke-linecap="round" stroke-linejoin="round"/>
<path d="M1.45833 7.14187C1.45833 4.60013 1.45833 3.32925 2.18873 2.53962C2.91914 1.75 4.0947 1.75 6.44583 1.75H7.55416C9.90529 1.75 11.0809 1.75 11.8113 2.53962C12.5417 3.32925 12.5417 4.60013 12.5417 7.14187V7.44147C12.5417 9.98323 12.5417 11.2541 11.8113 12.0437C11.0809 12.8333 9.90529 12.8333 7.55416 12.8333H6.44583C4.0947 12.8333 2.91914 12.8333 2.18873 12.0437C1.45833 11.2541 1.45833 9.98323 1.45833 7.44147V7.14187Z" stroke="#010A15" stroke-width="1.25" stroke-linecap="round" stroke-linejoin="round"/>
<path d="M1.75 4.66669H12.25" stroke="#010A15" stroke-width="1.25" stroke-linecap="round" stroke-linejoin="round"/>
</g>
<defs>
<clipPath id="clip0_1_1508">
<rect width="14" height="14" fill="white"/>
</clipPath>
</defs>
</svg>