<svg width="14" height="14" viewBox="0 0 14 14" fill="none" xmlns="http://www.w3.org/2000/svg">
<g clip-path="url(#clip0_1_1498)">
<path d="M1.39999 8.98328C1.48328 9.23259 1.58096 9.47508 1.69202 9.70964M2.63985 11.1686C2.82425 11.3829 3.02224 11.5847 3.23246 11.7724M5.48333 13.0666C5.22213 12.9824 4.96825 12.8813 4.7229 12.7646" stroke="#010A15" stroke-width="1.25" stroke-linecap="round" stroke-linejoin="round"/>
<path d="M7.23328 8.10828C7.71651 8.10828 8.10828 7.71651 8.10828 7.23328C8.10828 6.75004 7.71651 6.35828 7.23328 6.35828C6.75004 6.35828 6.35828 6.75004 6.35828 7.23328M7.23328 8.10828C6.75004 8.10828 6.35828 7.71651 6.35828 7.23328M7.23328 8.10828V9.56661M6.35828 7.23328H3.73328" stroke="#DD2509" stroke-linecap="round"/>
<path d="M7.23333 13.0667C10.455 13.0667 13.0667 10.455 13.0667 7.23336C13.0667 4.0117 10.455 1.40002 7.23333 1.40002C4.01166 1.40002 1.39999 4.0117 1.39999 7.23336" stroke="#010A15" stroke-width="1.25" stroke-linecap="round"/>
</g>
<defs>
<clipPath id="clip0_1_1498">
<rect width="14" height="14" fill="white"/>
</clipPath>
</defs>
</svg>