<svg width="14" height="14" viewBox="0 0 14 14" fill="none" xmlns="http://www.w3.org/2000/svg">
<g clip-path="url(#clip0_1_1519)">
<path d="M12.1182 10.5C12.5553 10.5 12.9029 10.225 13.2151 9.84031C13.8541 9.05298 12.8049 8.4238 12.4048 8.11568C11.998 7.80243 11.5438 7.62498 11.0833 7.58333M10.5 6.41667C11.3054 6.41667 11.9583 5.76375 11.9583 4.95833C11.9583 4.15292 11.3054 3.5 10.5 3.5" stroke="#010A15" stroke-width="1.25" stroke-linecap="round"/>
<path d="M1.8818 10.5C1.44471 10.5 1.09705 10.225 0.784898 9.84031C0.145879 9.05298 1.19505 8.4238 1.59521 8.11568C2.00198 7.80243 2.45617 7.62498 2.91666 7.58333M3.20833 6.41667C2.40291 6.41667 1.74999 5.76375 1.74999 4.95833C1.74999 4.15292 2.40291 3.5 3.20833 3.5" stroke="#010A15" stroke-width="1.25" stroke-linecap="round"/>
<path d="M4.71554 8.81489C4.11951 9.18344 2.55674 9.93599 3.50857 10.8777C3.97353 11.3377 4.49138 11.6667 5.14244 11.6667H8.85756C9.50862 11.6667 10.0264 11.3377 10.4914 10.8777C11.4432 9.93599 9.88049 9.18344 9.28444 8.81489C7.88672 7.95062 6.11327 7.95062 4.71554 8.81489Z" stroke="#DD2509" stroke-width="1.25" stroke-linecap="round" stroke-linejoin="round"/>
<path d="M9.04166 4.37498C9.04166 5.50256 8.12758 6.41665 6.99999 6.41665C5.87241 6.41665 4.95833 5.50256 4.95833 4.37498C4.95833 3.2474 5.87241 2.33331 6.99999 2.33331C8.12758 2.33331 9.04166 3.2474 9.04166 4.37498Z" stroke="#010A15" stroke-width="1.25"/>
</g>
<defs>
<clipPath id="clip0_1_1519">
<rect width="14" height="14" fill="white"/>
</clipPath>
</defs>
</svg>