<svg width="14" height="14" viewBox="0 0 14 14" fill="none" xmlns="http://www.w3.org/2000/svg">
<path d="M9.14927 5.79436L9.45721 6.4154C9.49921 6.50185 9.61121 6.58474 9.70571 6.60061L10.2639 6.69412C10.6208 6.75414 10.7048 7.01524 10.4476 7.27279L10.0137 7.71034C9.94016 7.78443 9.89991 7.92734 9.92266 8.02966L10.0469 8.57129C10.1449 9.00004 9.91916 9.16588 9.54296 8.94182L9.01977 8.62956C8.92527 8.57309 8.76958 8.57309 8.67333 8.62956L8.15014 8.94182C7.7757 9.16588 7.5482 8.99829 7.6462 8.57129L7.77045 8.02966C7.79314 7.92734 7.75295 7.78443 7.67945 7.71034L7.24551 7.27279C6.99001 7.01524 7.07226 6.75414 7.4292 6.69412L7.98739 6.60061C8.08014 6.58474 8.19214 6.50185 8.23414 6.4154L8.54208 5.79436C8.71008 5.45738 8.98302 5.45738 9.14927 5.79436Z" stroke="#DD2509" stroke-linecap="round" stroke-linejoin="round"/>
<path d="M5.05527 10.2083V12.25" stroke="#010A15" stroke-width="1.25" stroke-linecap="round" stroke-linejoin="round"/>
<path d="M5.05527 2.33331V4.37498" stroke="#010A15" stroke-width="1.25" stroke-linecap="round" stroke-linejoin="round"/>
<path d="M13.222 5.47103C13.183 4.57149 13.0736 3.98588 12.7672 3.52264C12.5909 3.25612 12.3719 3.02432 12.1202 2.83771C11.4397 2.33331 10.4797 2.33331 8.55987 2.33331H6.21793C4.29802 2.33331 3.33806 2.33331 2.65759 2.83771C2.40584 3.02432 2.18687 3.25612 2.01059 3.52264C1.70422 3.98583 1.59484 4.57136 1.5558 5.47073C1.54912 5.62453 1.6816 5.74217 1.82675 5.74217C2.63512 5.74217 3.29043 6.4359 3.29043 7.29165C3.29043 8.1474 2.63512 8.8411 1.82675 8.8411C1.6816 8.8411 1.54912 8.95876 1.5558 9.11258C1.59484 10.012 1.70422 10.5975 2.01059 11.0607C2.18687 11.3271 2.40584 11.559 2.65759 11.7456C3.33806 12.25 4.29802 12.25 6.21793 12.25H8.55987C10.4797 12.25 11.4397 12.25 12.1202 11.7456C12.3719 11.559 12.5909 11.3271 12.7672 11.0607C13.0736 10.5974 13.183 10.0118 13.222 9.11229V5.47103Z" stroke="#010A15" stroke-width="1.25" stroke-linejoin="round"/>
</svg>