<svg width="15" height="15" viewBox="0 0 15 15" fill="none" xmlns="http://www.w3.org/2000/svg">
<path d="M9.80278 6.20828L10.1327 6.87369C10.1777 6.96631 10.2977 7.05513 10.399 7.07213L10.997 7.17231C11.3795 7.23663 11.4695 7.51638 11.1938 7.79231L10.7289 8.26113C10.6502 8.3405 10.607 8.49363 10.6314 8.60325L10.7645 9.18356C10.8695 9.64294 10.6277 9.82063 10.2246 9.58056L9.66403 9.246C9.56278 9.1855 9.39597 9.1855 9.29284 9.246L8.73228 9.58056C8.33109 9.82063 8.08734 9.64106 8.19234 9.18356L8.32547 8.60325C8.34978 8.49363 8.30672 8.3405 8.22797 8.26113L7.76303 7.79231C7.48928 7.51638 7.57741 7.23663 7.95984 7.17231L8.5579 7.07213C8.65728 7.05513 8.77728 6.96631 8.82228 6.87369L9.15222 6.20828C9.33222 5.84724 9.62465 5.84724 9.80278 6.20828Z" stroke="white" stroke-width="1.5" stroke-linecap="round" stroke-linejoin="round"/>
<path d="M5.41635 10.9375V13.125" stroke="white" stroke-width="1.5" stroke-linecap="round" stroke-linejoin="round"/>
<path d="M5.41635 2.5V4.6875" stroke="white" stroke-width="1.5" stroke-linecap="round" stroke-linejoin="round"/>
<path d="M14.1664 5.86184C14.1246 4.89804 14.0074 4.27061 13.6791 3.77428C13.4902 3.48872 13.2556 3.24037 12.9859 3.04042C12.2568 2.5 11.2283 2.5 9.17127 2.5H6.66205C4.60501 2.5 3.57648 2.5 2.84741 3.04042C2.57768 3.24037 2.34307 3.48872 2.15419 3.77428C1.82593 4.27056 1.70875 4.89791 1.66692 5.86152C1.65976 6.0263 1.8017 6.15234 1.95722 6.15234C2.82333 6.15234 3.52545 6.89563 3.52545 7.8125C3.52545 8.72938 2.82333 9.47263 1.95722 9.47263C1.8017 9.47263 1.65976 9.59869 1.66692 9.7635C1.70875 10.7271 1.82593 11.3544 2.15419 11.8508C2.34307 12.1363 2.57768 12.3846 2.84741 12.5846C3.57648 13.125 4.60501 13.125 6.66206 13.125H9.17127C11.2283 13.125 12.2568 13.125 12.9859 12.5846C13.2556 12.3846 13.4902 12.1363 13.6791 11.8508C14.0074 11.3544 14.1246 10.7269 14.1664 9.76319V5.86184Z" stroke="white" stroke-width="1.5" stroke-linejoin="round"/>
</svg>